<?xml version="1.0" encoding="iso-8859-1"?>
<!-- Generator: Adobe Illustrator 19.0.0, SVG Export Plug-In . SVG Version: 6.00 Build 0)  -->
<svg version="1.1" id="Layer_1" xmlns="http://www.w3.org/2000/svg" xmlns:xlink="http://www.w3.org/1999/xlink" x="0px" y="0px"
	 viewBox="0 0 417.606 417.606" style="enable-background:new 0 0 417.606 417.606;" xml:space="preserve">
<g>
	<path style="fill:#F05228;" d="M251.906,331.41c-91.379,0-165.709-74.338-165.709-165.705c0-91.371,74.334-165.705,165.709-165.705
		c91.366,0,165.7,74.334,165.7,165.705C417.606,257.072,343.272,331.41,251.906,331.41z M251.906,61.975
		c-57.203,0-103.735,46.532-103.735,103.735c0,57.195,46.532,103.735,103.735,103.735c57.199,0,103.735-46.537,103.735-103.735
		C355.637,108.507,309.105,61.975,251.906,61.975z"/>
	
		<rect x="58.314" y="233.078" transform="matrix(-0.7071 -0.7071 0.7071 -0.7071 -79.7284 623.65)" style="fill:#F05228;" width="61.968" height="190.518"/>
	
		<rect x="-5.991" y="297.329" transform="matrix(-0.7071 -0.7071 0.7071 -0.7071 -79.764 623.5881)" style="fill:#F05228;" width="190.518" height="61.968"/>
</g>
<g>
</g>
<g>
</g>
<g>
</g>
<g>
</g>
<g>
</g>
<g>
</g>
<g>
</g>
<g>
</g>
<g>
</g>
<g>
</g>
<g>
</g>
<g>
</g>
<g>
</g>
<g>
</g>
<g>
</g>
</svg>
