<?xml version="1.0" encoding="iso-8859-1"?>
<!-- Generator: Adobe Illustrator 19.0.0, SVG Export Plug-In . SVG Version: 6.00 Build 0)  -->
<svg version="1.1" id="Layer_1" xmlns="http://www.w3.org/2000/svg" xmlns:xlink="http://www.w3.org/1999/xlink" x="0px" y="0px"
	 viewBox="0 0 426.667 426.667" style="enable-background:new 0 0 426.667 426.667;" xml:space="preserve">
<g>
	<path style="fill:#50C8EF;" d="M165.705,426.667C74.334,426.667,0,352.333,0,260.962c0-91.366,74.334-165.7,165.705-165.7
		c91.366,0,165.7,74.334,165.7,165.7C331.405,352.333,257.071,426.667,165.705,426.667z M165.705,157.235
		c-57.199,0-103.735,46.532-103.735,103.731s46.532,103.735,103.735,103.735c57.195,0,103.735-46.532,103.735-103.735
		C269.436,203.767,222.899,157.235,165.705,157.235z"/>
	<polygon style="fill:#50C8EF;" points="426.667,165.705 364.698,165.705 364.698,61.969 260.962,61.969 260.962,0 426.667,0 	"/>
	
		<rect x="297.325" y="3.092" transform="matrix(-0.7071 -0.7071 0.7071 -0.7071 490.914 400.0457)" style="fill:#50C8EF;" width="61.968" height="190.518"/>
</g>
<g>
</g>
<g>
</g>
<g>
</g>
<g>
</g>
<g>
</g>
<g>
</g>
<g>
</g>
<g>
</g>
<g>
</g>
<g>
</g>
<g>
</g>
<g>
</g>
<g>
</g>
<g>
</g>
<g>
</g>
</svg>
